# Wavefront OBJ exported by MilkShape 3D

mtllib 20ounce.mtl

v 0.143251 -5.181754 5.075727
v 0.034193 -5.135996 4.877911
v 0.136349 -5.182397 4.676603
v 0.347562 -5.274561 4.673099
v 0.456620 -5.320318 4.870909
v 0.354461 -5.273919 5.072221
v 0.273557 -4.883015 5.072994
v 0.164502 -4.837254 4.875183
v 0.266660 -4.883658 4.673865
v 0.477875 -4.975817 4.670365
v 0.586930 -5.021579 4.868177
v 0.484771 -4.975180 5.069493
v 0.375719 -4.929415 4.871676
v 0.044409 -6.277657 4.421828
v -0.381198 -6.092595 4.421828
v -0.551294 -5.660789 4.421828
v -0.366231 -5.235180 4.421828
v 0.065571 -5.065091 4.421828
v 0.491188 -5.250144 4.421828
v 0.661275 -5.681955 4.421828
v 0.476218 -6.107561 4.421828
v 0.044409 -6.277657 5.279378
v -0.381198 -6.092595 5.279378
v -0.551294 -5.660789 5.279378
v -0.366231 -5.235180 5.279378
v 0.065571 -5.065091 5.279378
v 0.491188 -5.250144 5.279378
v 0.661275 -5.681955 5.279378
v 0.476217 -6.107563 5.279378
v 0.054994 -5.671371 5.279378
v 0.054994 -5.671371 6.184614
v 0.382810 -6.010837 6.184612
v 0.526829 -5.679613 6.184612
v 0.394455 -5.343554 6.184612
v 0.063226 -5.199538 6.184612
v -0.272824 -5.331906 6.184614
v -0.416850 -5.663139 6.184612
v -0.284473 -5.999189 6.184612
v 0.046755 -6.143209 6.184612
v 0.382810 -6.010837 5.260961
v 0.526828 -5.679611 5.260961
v 0.394455 -5.343554 5.260961
v 0.063226 -5.199538 5.260961
v -0.272824 -5.331906 5.260961
v -0.416850 -5.663139 5.260961
v -0.284473 -5.999189 5.260961
v 0.046755 -6.143209 5.260961
v 2.308261 -5.679799 -9.112097
v 2.005119 -6.811139 -9.112097
v 1.176926 -7.639332 -9.112097
v 0.045585 -7.942477 -9.112097
v -1.085749 -7.639332 -9.112097
v -1.913949 -6.811136 -9.112097
v -2.217087 -5.679805 -9.112097
v -1.913943 -4.548463 -9.112097
v -1.085755 -3.720274 -9.112097
v 0.045586 -3.417126 -9.112097
v 1.176923 -3.720267 -9.112097
v 2.005119 -4.548461 -9.112097
v 0.913424 -5.679803 4.430883
v 0.797156 -6.113718 4.430883
v 0.479503 -6.431376 4.430883
v 0.045588 -6.547644 4.430883
v -0.388330 -6.431372 4.430883
v -0.705983 -6.113721 4.430883
v -0.822252 -5.679803 4.430883
v -0.705988 -5.245884 4.430883
v -0.388335 -4.928230 4.430883
v 0.045583 -4.811960 4.430883
v 0.479503 -4.928230 4.430883
v 0.797155 -5.245881 4.430883
v 0.045587 -5.679801 -9.112097
v 0.045588 -5.679800 4.430883
v 2.005120 -6.811138 2.249162
v 2.308263 -5.679797 2.249162
v 1.176927 -7.639330 2.249162
v 0.045588 -7.942476 2.249162
v -1.085745 -7.639333 2.249162
v -1.913942 -6.811138 2.249162
v -2.217085 -5.679809 2.249162
v -1.913943 -4.548465 2.249162
v -1.085750 -3.720277 2.249162
v 0.045585 -3.417122 2.249162
v 1.176917 -3.720273 2.249162
v 2.005115 -4.548460 2.249162
v 0.797155 -5.245881 3.727094
v 0.913424 -5.679803 3.727094
v 0.479503 -4.928230 3.727094
v 0.045583 -4.811960 3.727094
v -0.388335 -4.928230 3.727094
v -0.705988 -5.245884 3.727094
v -0.822252 -5.679803 3.727094
v -0.705983 -6.113721 3.727094
v -0.388330 -6.431372 3.727094
v 0.045588 -6.547644 3.727094
v 0.479503 -6.431376 3.727094
v 0.797156 -6.113718 3.727094
v 2.129871 -5.679799 2.647048
v 1.850627 -6.721939 2.647048
v 1.087730 -7.484841 2.647048
v 0.045590 -7.764089 2.647048
v -0.996552 -7.484843 2.647048
v -1.759452 -6.721944 2.647048
v -2.038694 -5.679802 2.647048
v -1.759453 -4.637664 2.647048
v -0.996557 -3.874762 2.647048
v 0.045581 -3.595520 2.647048
v 1.087726 -3.874758 2.647048
v 1.850630 -4.637655 2.647048
v 1.467884 -5.679798 3.348476
v 1.277328 -6.390944 3.348476
v 0.756735 -6.911545 3.348476
v 0.045586 -7.102095 3.348476
v -0.665559 -6.911545 3.348476
v -1.186154 -6.390947 3.348476
v -1.376711 -5.679800 3.348476
v -1.186157 -4.968655 3.348476
v -0.665561 -4.448059 3.348476
v 0.045579 -4.257510 3.348476
v 0.756732 -4.448060 3.348476
v 1.277332 -4.968649 3.348476
# 121 vertices

vt 0.336507 0.228438
vt 0.395889 0.229414
vt 0.365352 0.280352
vt 0.367043 0.177500
vt 0.307662 0.176524
vt 0.277126 0.227461
vt 0.305971 0.279375
vt 0.063675 0.246883
vt 0.121359 0.247101
vt 0.121205 0.287889
vt 0.063521 0.287672
vt 0.121051 0.328678
vt 0.063367 0.328460
vt 0.120897 0.369466
vt 0.063213 0.369249
vt 0.120743 0.410255
vt 0.063059 0.410037
vt 0.120589 0.451044
vt 0.062905 0.450826
vt 0.120435 0.491832
vt 0.062751 0.491614
vt 0.291257 0.379265
vt 0.291257 0.298842
vt 0.348125 0.322397
vt 0.234389 0.322397
vt 0.210834 0.379265
vt 0.234389 0.436134
vt 0.291258 0.459689
vt 0.348126 0.436133
vt 0.371681 0.379265
vt 0.369825 0.534617
vt 0.256089 0.534208
vt 0.256310 0.472655
vt 0.370046 0.473064
vt 0.368279 0.965490
vt 0.254543 0.965082
vt 0.254764 0.903529
vt 0.368499 0.903937
vt 0.254984 0.841976
vt 0.368720 0.842384
vt 0.255205 0.780423
vt 0.368941 0.780831
vt 0.255425 0.718869
vt 0.369161 0.719277
vt 0.255646 0.657316
vt 0.369382 0.657724
vt 0.255867 0.595762
vt 0.369603 0.596171
vt 0.128717 0.813973
vt 0.251224 0.814073
vt 0.251185 0.861977
vt 0.128678 0.861877
vt 0.128756 0.766069
vt 0.251263 0.766169
vt 0.128795 0.718165
vt 0.251302 0.718265
vt 0.128834 0.670261
vt 0.251342 0.670361
vt 0.128874 0.622357
vt 0.251381 0.622457
vt 0.128914 0.574453
vt 0.251420 0.574554
vt 0.128953 0.526549
vt 0.251460 0.526650
vt 0.251145 0.909881
vt 0.128639 0.909781
vt 0.070076 0.719878
vt 0.114334 0.675621
vt 0.132666 0.719878
vt 0.114334 0.764136
vt 0.070076 0.782468
vt 0.025819 0.764136
vt 0.007487 0.719878
vt 0.025819 0.675621
vt 0.070076 0.657289
vt 0.184221 0.119573
vt 0.258572 0.193924
vt 0.211436 0.221138
vt 0.317564 0.056963
vt 0.356519 0.067401
vt 0.346081 0.085480
vt 0.157007 0.221138
vt 0.356519 0.046525
vt 0.109871 0.193924
vt 0.346081 0.028446
vt 0.082656 0.146787
vt 0.328002 0.018008
vt 0.082656 0.092359
vt 0.307126 0.018008
vt 0.109871 0.045222
vt 0.289047 0.028446
vt 0.157007 0.018008
vt 0.278609 0.046525
vt 0.211436 0.018008
vt 0.278609 0.067401
vt 0.258572 0.045222
vt 0.289047 0.085480
vt 0.285787 0.092359
vt 0.307126 0.095918
vt 0.285787 0.146787
vt 0.328002 0.095918
vt 0.457187 0.028241
vt 0.457023 0.484697
vt 0.409922 0.484759
vt 0.410122 0.028221
vt 0.974796 0.028798
vt 0.974062 0.485190
vt 0.926978 0.485031
vt 0.927746 0.028723
vt 0.879975 0.484859
vt 0.880697 0.028649
vt 0.833036 0.484717
vt 0.833649 0.028579
vt 0.786136 0.484618
vt 0.786600 0.028514
vt 0.739136 0.484556
vt 0.739548 0.028455
vt 0.692143 0.484518
vt 0.692493 0.028403
vt 0.645148 0.484506
vt 0.645436 0.028358
vt 0.598143 0.484519
vt 0.598376 0.028321
vt 0.551114 0.484558
vt 0.551315 0.028290
vt 0.504042 0.484618
vt 0.504251 0.028264
vt 0.506522 0.501842
vt 0.460202 0.503602
vt 0.552495 0.501419
vt 0.598754 0.501427
vt 0.645308 0.501544
vt 0.692024 0.501623
vt 0.738743 0.501619
vt 0.785299 0.501576
vt 0.831520 0.501629
vt 0.877457 0.502072
vt 0.923733 0.503761
vt 0.973211 0.510765
vt 0.410470 0.510959
vt 0.475788 0.593065
vt 0.476457 0.648949
vt 0.443777 0.648496
vt 0.444487 0.597298
vt 0.937892 0.598239
vt 0.938499 0.653081
vt 0.903494 0.653468
vt 0.904260 0.594382
vt 0.866126 0.655806
vt 0.865490 0.592875
vt 0.825385 0.659565
vt 0.823529 0.593037
vt 0.781311 0.663396
vt 0.779371 0.593867
vt 0.734708 0.666004
vt 0.733788 0.594563
vt 0.686851 0.666533
vt 0.687558 0.594638
vt 0.639245 0.664710
vt 0.641495 0.593954
vt 0.593404 0.660896
vt 0.596432 0.592731
vt 0.550619 0.656056
vt 0.553196 0.591548
vt 0.511665 0.651606
vt 0.512636 0.591310
vt 0.467889 0.550849
vt 0.428439 0.560175
vt 0.955164 0.559243
vt 0.914598 0.550615
vt 0.872037 0.547687
vt 0.827990 0.547068
vt 0.782774 0.547257
vt 0.736747 0.547547
vt 0.690329 0.547608
vt 0.643958 0.547347
vt 0.598078 0.546888
vt 0.553139 0.546623
vt 0.509592 0.547381
# 179 texture coordinates

vn 0.399799 0.916564 -0.008379
vn -0.785022 0.347107 0.513086
vn -0.802297 0.345508 -0.486768
vn -0.017285 -0.001616 -0.999849
vn 0.785015 -0.347118 -0.513089
vn 0.802296 -0.345514 0.486767
vn 0.017284 0.001600 0.999849
vn 0.000000 0.000000 1.000000
vn -0.154044 -0.988064 0.000000
vn 0.119463 -0.992839 -0.000000
vn -0.617570 -0.786516 0.000000
vn -0.807589 -0.589746 0.000000
vn -0.992838 -0.119467 0.000000
vn -0.988064 0.154044 0.000000
vn -0.786513 0.617573 0.000000
vn -0.589740 0.807594 0.000000
vn -0.119468 0.992838 0.000000
vn 0.154029 0.988066 0.000000
vn 0.617562 0.786522 0.000000
vn 0.807594 0.589739 0.000000
vn 0.992840 0.119453 0.000000
vn 0.988064 -0.154044 0.000000
vn 0.786518 -0.617567 -0.000000
vn 0.589745 -0.807589 -0.000000
vn 0.000000 0.000000 -1.000000
vn 0.996035 -0.088962 -0.000000
vn 0.996035 0.088964 0.000000
vn 0.907073 -0.420974 -0.000000
vn 0.818110 -0.575061 -0.000000
vn 0.575062 -0.818110 0.000000
vn 0.420976 -0.907072 0.000000
vn 0.088963 -0.996035 0.000000
vn -0.088964 -0.996035 0.000000
vn -0.420976 -0.907072 0.000000
vn -0.575061 -0.818110 0.000000
vn -0.818109 -0.575063 0.000000
vn -0.907072 -0.420975 0.000000
vn -0.996035 -0.088963 0.000000
vn -0.996035 0.088963 0.000000
vn -0.907072 0.420975 0.000000
vn -0.818110 0.575062 0.000000
vn -0.575064 0.818109 0.000000
vn -0.420980 0.907070 0.000000
vn -0.088965 0.996035 -0.000000
vn 0.088964 0.996035 -0.000000
vn 0.420975 0.907072 0.000000
vn 0.575059 0.818112 0.000001
vn 0.818108 0.575065 0.000000
vn 0.907072 0.420976 0.000000
vn 0.828240 0.384392 0.407752
vn 0.715662 0.422432 0.556219
vn 0.830994 0.008002 0.556223
vn 0.909469 -0.081230 0.407761
vn 0.525085 0.747014 0.407745
vn 0.408565 0.723665 0.556223
vn 0.081229 0.909467 0.407763
vn -0.008007 0.830991 0.556228
vn -0.384392 0.828240 0.407753
vn -0.422429 0.715661 0.556221
vn -0.747010 0.525083 0.407755
vn -0.723664 0.408565 0.556224
vn -0.909470 0.081230 0.407758
vn -0.830994 -0.008003 0.556223
vn -0.828238 -0.384389 0.407758
vn -0.715660 -0.422429 0.556223
vn -0.525084 -0.747010 0.407755
vn -0.408568 -0.723663 0.556222
vn -0.081232 -0.909472 0.407753
vn 0.008004 -0.830994 0.556224
vn 0.384390 -0.828240 0.407754
vn 0.422429 -0.715658 0.556226
vn 0.747007 -0.525081 0.407762
vn 0.723662 -0.408564 0.556227
vn 0.881191 -0.021095 0.472290
vn 0.752589 -0.458862 0.472288
vn 0.422331 -0.773680 0.472288
vn -0.021098 -0.881192 0.472287
vn -0.458864 -0.752588 0.472288
vn -0.773681 -0.422329 0.472288
vn -0.881192 0.021088 0.472289
vn -0.752589 0.458861 0.472289
vn -0.422330 0.773681 0.472288
vn 0.021094 0.881192 0.472287
vn 0.458864 0.752588 0.472287
vn 0.773680 0.422329 0.472290
vn 0.649028 0.007122 0.760731
vn 0.565638 -0.318345 0.760730
vn 0.330685 -0.558513 0.760730
vn 0.007123 -0.649028 0.760731
vn -0.318346 -0.565636 0.760731
vn -0.558514 -0.330685 0.760730
vn -0.649029 -0.007125 0.760731
vn -0.565638 0.318347 0.760729
vn -0.330684 0.558515 0.760730
vn -0.007124 0.649030 0.760730
vn 0.318342 0.565638 0.760731
vn 0.558510 0.330685 0.760733
# 97 normals

g default
usemtl Material01
s 4
f 13/1/1 8/2/1 7/3/1
f 13/1/1 9/4/1 8/2/1
f 13/1/1 10/5/1 9/4/1
f 13/1/1 11/6/1 10/5/1
f 13/1/1 12/7/1 11/6/1
f 13/1/1 7/3/1 12/7/1
s 7
f 1/8/2 7/9/2 8/10/2
f 1/8/2 8/10/2 2/11/2
s 1
f 2/11/3 8/10/3 9/12/3
f 2/11/3 9/12/3 3/13/3
s 6
f 3/13/4 9/12/4 10/14/4
f 3/13/4 10/14/4 4/15/4
s 1
f 4/15/5 10/14/5 11/16/5
f 4/15/5 11/16/5 5/17/5
s 7
f 5/17/6 11/16/6 12/18/6
f 5/17/6 12/18/6 6/19/6
s 6
f 7/20/7 1/21/7 6/19/7
f 7/20/7 6/19/7 12/18/7
s 2
f 30/22/8 23/23/8 22/24/8
f 30/22/8 24/25/8 23/23/8
f 30/22/8 25/26/8 24/25/8
f 30/22/8 26/27/8 25/26/8
f 30/22/8 27/28/8 26/27/8
f 30/22/8 28/29/8 27/28/8
f 30/22/8 29/30/8 28/29/8
f 30/22/8 22/24/8 29/30/8
s 1
f 14/31/9 22/32/10 23/33/11
f 14/31/9 23/33/11 15/34/12
f 15/35/12 23/36/11 24/37/13
f 15/35/12 24/37/13 16/38/14
f 16/38/14 24/37/13 25/39/15
f 16/38/14 25/39/15 17/40/16
f 17/40/16 25/39/15 26/41/17
f 17/40/16 26/41/17 18/42/18
f 18/42/18 26/41/17 27/43/19
f 18/42/18 27/43/19 19/44/20
f 19/44/20 27/43/19 28/45/21
f 19/44/20 28/45/21 20/46/22
f 20/46/22 28/45/21 29/47/23
f 20/46/22 29/47/23 21/48/24
f 22/32/10 14/31/9 21/48/24
f 22/32/10 21/48/24 29/47/23
f 40/49/24 32/50/23 39/51/10
f 40/49/24 39/51/10 47/52/9
f 41/53/22 33/54/21 32/50/23
f 41/53/22 32/50/23 40/49/24
f 42/55/20 34/56/19 33/54/21
f 42/55/20 33/54/21 41/53/22
f 43/57/18 35/58/17 34/56/19
f 43/57/18 34/56/19 42/55/20
f 44/59/16 36/60/15 35/58/17
f 44/59/16 35/58/17 43/57/18
f 45/61/14 37/62/13 36/60/15
f 45/61/14 36/60/15 44/59/16
f 46/63/12 38/64/11 37/62/13
f 46/63/12 37/62/13 45/61/14
f 47/52/9 39/51/10 38/65/11
f 47/52/9 38/65/11 46/66/12
s 2
f 31/67/8 39/68/8 32/69/8
f 31/67/8 32/69/8 33/70/8
f 31/67/8 33/70/8 34/71/8
f 31/67/8 34/71/8 35/72/8
f 31/67/8 35/72/8 36/73/8
f 31/67/8 36/73/8 37/74/8
f 31/67/8 37/74/8 38/75/8
f 31/67/8 38/75/8 39/68/8
f 72/76/25 48/77/25 49/78/25
s 1
f 73/79/8 61/80/8 60/81/8
s 2
f 72/76/25 49/78/25 50/82/25
s 1
f 73/79/8 62/83/8 61/80/8
s 2
f 72/76/25 50/82/25 51/84/25
s 1
f 73/79/8 63/85/8 62/83/8
s 2
f 72/76/25 51/84/25 52/86/25
s 1
f 73/79/8 64/87/8 63/85/8
s 2
f 72/76/25 52/86/25 53/88/25
s 1
f 73/79/8 65/89/8 64/87/8
s 2
f 72/76/25 53/88/25 54/90/25
s 1
f 73/79/8 66/91/8 65/89/8
s 2
f 72/76/25 54/90/25 55/92/25
s 1
f 73/79/8 67/93/8 66/91/8
s 2
f 72/76/25 55/92/25 56/94/25
s 1
f 73/79/8 68/95/8 67/93/8
s 2
f 72/76/25 56/94/25 57/96/25
s 1
f 73/79/8 69/97/8 68/95/8
s 2
f 72/76/25 57/96/25 58/98/25
s 1
f 73/79/8 70/99/8 69/97/8
s 2
f 72/76/25 58/98/25 59/100/25
s 1
f 73/79/8 71/101/8 70/99/8
s 2
f 59/100/25 48/77/25 72/76/25
s 1
f 73/79/8 60/81/8 71/101/8
f 48/102/26 75/103/27 74/104/28
f 48/102/26 74/104/28 49/105/29
f 49/106/29 74/107/28 76/108/30
f 49/106/29 76/108/30 50/109/31
f 50/109/31 76/108/30 77/110/32
f 50/109/31 77/110/32 51/111/33
f 51/111/33 77/110/32 78/112/34
f 51/111/33 78/112/34 52/113/35
f 52/113/35 78/112/34 79/114/36
f 52/113/35 79/114/36 53/115/37
f 53/115/37 79/114/36 80/116/38
f 53/115/37 80/116/38 54/117/39
f 54/117/39 80/116/38 81/118/40
f 54/117/39 81/118/40 55/119/41
f 55/119/41 81/118/40 82/120/42
f 55/119/41 82/120/42 56/121/43
f 56/121/43 82/120/42 83/122/44
f 56/121/43 83/122/44 57/123/45
f 57/123/45 83/122/44 84/124/46
f 57/123/45 84/124/46 58/125/47
f 58/125/47 84/124/46 85/126/48
f 58/125/47 85/126/48 59/127/49
f 75/103/27 48/102/26 59/127/49
f 75/103/27 59/127/49 85/126/48
s 2
f 85/126/50 109/128/51 98/129/52
f 85/126/50 98/129/52 75/103/53
f 84/124/54 108/130/55 109/128/51
f 84/124/54 109/128/51 85/126/50
f 83/122/56 107/131/57 108/130/55
f 83/122/56 108/130/55 84/124/54
f 82/120/58 106/132/59 107/131/57
f 82/120/58 107/131/57 83/122/56
f 81/118/60 105/133/61 106/132/59
f 81/118/60 106/132/59 82/120/58
f 80/116/62 104/134/63 105/133/61
f 80/116/62 105/133/61 81/118/60
f 79/114/64 103/135/65 104/134/63
f 79/114/64 104/134/63 80/116/62
f 78/112/66 102/136/67 103/135/65
f 78/112/66 103/135/65 79/114/64
f 77/110/68 101/137/69 102/136/67
f 77/110/68 102/136/67 78/112/66
f 76/108/70 100/138/71 101/137/69
f 76/108/70 101/137/69 77/110/68
f 74/107/72 99/139/73 100/138/71
f 74/107/72 100/138/71 76/108/70
f 75/103/53 98/129/52 99/140/73
f 75/103/53 99/140/73 74/104/72
f 87/141/74 60/142/27 61/143/28
f 87/141/74 61/143/28 97/144/75
f 97/145/75 61/146/28 62/147/30
f 97/145/75 62/147/30 96/148/76
f 96/148/76 62/147/30 63/149/32
f 96/148/76 63/149/32 95/150/77
f 95/150/77 63/149/32 64/151/34
f 95/150/77 64/151/34 94/152/78
f 94/152/78 64/151/34 65/153/36
f 94/152/78 65/153/36 93/154/79
f 93/154/79 65/153/36 66/155/38
f 93/154/79 66/155/38 92/156/80
f 92/156/80 66/155/38 67/157/40
f 92/156/80 67/157/40 91/158/81
f 91/158/81 67/157/40 68/159/42
f 91/158/81 68/159/42 90/160/82
f 90/160/82 68/159/42 69/161/44
f 90/160/82 69/161/44 89/162/83
f 89/162/83 69/161/44 70/163/46
f 89/162/83 70/163/46 88/164/84
f 88/164/84 70/163/46 71/165/48
f 88/164/84 71/165/48 86/166/85
f 86/166/85 71/165/48 60/142/27
f 86/166/85 60/142/27 87/141/74
f 98/129/52 110/167/86 111/168/87
f 98/129/52 111/168/87 99/140/73
f 99/139/73 111/169/87 112/170/88
f 99/139/73 112/170/88 100/138/71
f 100/138/71 112/170/88 113/171/89
f 100/138/71 113/171/89 101/137/69
f 101/137/69 113/171/89 114/172/90
f 101/137/69 114/172/90 102/136/67
f 102/136/67 114/172/90 115/173/91
f 102/136/67 115/173/91 103/135/65
f 103/135/65 115/173/91 116/174/92
f 103/135/65 116/174/92 104/134/63
f 104/134/63 116/174/92 117/175/93
f 104/134/63 117/175/93 105/133/61
f 105/133/61 117/175/93 118/176/94
f 105/133/61 118/176/94 106/132/59
f 106/132/59 118/176/94 119/177/95
f 106/132/59 119/177/95 107/131/57
f 107/131/57 119/177/95 120/178/96
f 107/131/57 120/178/96 108/130/55
f 108/130/55 120/178/96 121/179/97
f 108/130/55 121/179/97 109/128/51
f 109/128/51 121/179/97 110/167/86
f 109/128/51 110/167/86 98/129/52
f 121/179/97 86/166/85 87/141/74
f 121/179/97 87/141/74 110/167/86
f 120/178/96 88/164/84 86/166/85
f 120/178/96 86/166/85 121/179/97
f 119/177/95 89/162/83 88/164/84
f 119/177/95 88/164/84 120/178/96
f 118/176/94 90/160/82 89/162/83
f 118/176/94 89/162/83 119/177/95
f 117/175/93 91/158/81 90/160/82
f 117/175/93 90/160/82 118/176/94
f 116/174/92 92/156/80 91/158/81
f 116/174/92 91/158/81 117/175/93
f 115/173/91 93/154/79 92/156/80
f 115/173/91 92/156/80 116/174/92
f 114/172/90 94/152/78 93/154/79
f 114/172/90 93/154/79 115/173/91
f 113/171/89 95/150/77 94/152/78
f 113/171/89 94/152/78 114/172/90
f 112/170/88 96/148/76 95/150/77
f 112/170/88 95/150/77 113/171/89
f 111/169/87 97/145/75 96/148/76
f 111/169/87 96/148/76 112/170/88
f 110/167/86 87/141/74 97/144/75
f 110/167/86 97/144/75 111/168/87
# 210 triangles in group

# 210 triangles total

