# Wavefront OBJ exported by MilkShape 3D

mtllib barrel_lapcostyle.mtl

v 71.896622 2.391056 0.000000
v 71.896622 2.815650 0.000000
v 57.562523 2.815657 0.000000
v 56.927094 3.750015 0.000000
v 46.958336 3.750011 0.000000
v 43.378460 2.951583 0.000000
v -39.423626 2.951590 0.000000
v -43.924133 3.750011 0.000000
v -58.033825 3.750008 0.000000
v 71.896622 1.853018 2.008026
v 71.896622 2.220710 2.220329
v 57.562538 2.220723 2.220329
v 56.927094 3.029884 2.687500
v 46.958336 3.029892 2.687500
v 43.378456 2.338438 2.288293
v -39.423641 2.338454 2.288293
v -43.924133 3.029888 2.687500
v -58.033825 3.029900 2.687500
v 71.896622 0.383034 3.478002
v 71.896622 0.595341 3.845721
v 57.562523 0.595331 3.845721
v 56.927086 1.062500 4.654886
v 46.958336 1.062489 4.654886
v 43.378460 0.663300 3.963439
v -39.423634 0.663296 3.963439
v -43.924126 1.062515 4.654886
v -58.033825 1.062508 4.654886
v 71.896622 -1.625004 4.016051
v 71.896622 -1.624987 4.440657
v 57.562538 -1.625009 4.440657
v 56.927109 -1.625000 5.375000
v 46.958336 -1.625000 5.375000
v 43.378456 -1.624990 4.576586
v -39.423626 -1.624996 4.576586
v -43.924137 -1.624996 5.375000
v -58.033825 -1.625004 5.375000
v 71.896622 -3.633031 3.478002
v 71.896622 -3.845351 3.845721
v 57.562523 -3.845342 3.845721
v 56.927094 -4.312504 4.654886
v 46.958328 -4.312496 4.654886
v 43.378456 -3.913291 3.963439
v -39.423634 -3.913288 3.963439
v -43.924141 -4.312500 4.654886
v -58.033825 -4.312492 4.654886
v 71.896622 -5.103007 2.008026
v 71.896622 -5.470721 2.220329
v 57.562523 -5.470736 2.220329
v 56.927094 -6.279877 2.687500
v 46.958328 -6.279900 2.687500
v 43.378460 -5.588441 2.288293
v -39.423626 -5.588441 2.288293
v -43.924137 -6.279881 2.687500
v -58.033825 -6.279900 2.687500
v 71.896622 -5.641057 0.000000
v 71.896622 -6.065664 0.000000
v 57.562508 -6.065664 0.000000
v 56.927094 -7.000004 0.000000
v 46.958336 -7.000011 0.000000
v 43.378456 -6.201595 0.000000
v -39.423626 -6.201590 0.000000
v -43.924141 -7.000019 0.000000
v -58.033825 -6.999996 0.000000
v 71.896622 -5.103007 -2.008026
v 71.896622 -5.470721 -2.220329
v 57.562523 -5.470736 -2.220329
v 56.927094 -6.279877 -2.687500
v 46.958328 -6.279900 -2.687500
v 43.378460 -5.588441 -2.288293
v -39.423626 -5.588441 -2.288293
v -43.924137 -6.279881 -2.687500
v -58.033825 -6.279900 -2.687500
v 71.896622 -3.633031 -3.478002
v 71.896622 -3.845351 -3.845721
v 57.562523 -3.845342 -3.845721
v 56.927094 -4.312504 -4.654886
v 46.958328 -4.312496 -4.654886
v 43.378456 -3.913291 -3.963439
v -39.423634 -3.913288 -3.963439
v -43.924141 -4.312500 -4.654886
v -58.033825 -4.312492 -4.654886
v 71.896622 -1.625004 -4.016051
v 71.896622 -1.624987 -4.440657
v 57.562538 -1.625009 -4.440657
v 56.927109 -1.625000 -5.375000
v 46.958336 -1.625000 -5.375000
v 43.378456 -1.624990 -4.576586
v -39.423626 -1.624996 -4.576586
v -43.924137 -1.624996 -5.375000
v -58.033825 -1.625004 -5.375000
v 71.896622 0.383034 -3.478002
v 71.896622 0.595341 -3.845721
v 57.562523 0.595331 -3.845721
v 56.927086 1.062500 -4.654886
v 46.958336 1.062489 -4.654886
v 43.378460 0.663300 -3.963439
v -39.423634 0.663296 -3.963439
v -43.924126 1.062515 -4.654886
v -58.033825 1.062508 -4.654886
v 71.896622 1.853018 -2.008026
v 71.896622 2.220710 -2.220329
v 57.562538 2.220723 -2.220329
v 56.927094 3.029884 -2.687500
v 46.958336 3.029892 -2.687500
v 43.378456 2.338438 -2.288293
v -39.423641 2.338454 -2.288293
v -43.924133 3.029888 -2.687500
v -58.033825 3.029900 -2.687500
v -58.033825 1.853027 2.007996
v -58.033825 1.853027 -2.007996
v -58.033825 2.391052 0.000000
v -58.033825 0.383057 3.478027
v -58.033825 0.383057 -3.478027
v -58.033825 -1.625000 4.016052
v -58.033825 -1.625000 -4.016052
v -58.033825 -3.633057 -3.478027
v -58.033825 -3.633057 3.478027
v -58.033825 -5.103027 -2.007996
v -58.033825 -5.103027 2.007996
v -58.033825 -5.641052 0.000000
# 120 vertices

vt 0.145591 0.415159
vt 0.145591 0.403035
vt 0.204638 0.420023
vt 0.198992 0.430521
vt 0.997152 0.672971
vt 0.919426 0.672971
vt 0.997152 0.618789
vt 0.919426 0.618789
vt 0.145591 0.376356
vt 0.217062 0.396918
vt 0.915980 0.672971
vt 0.861925 0.672971
vt 0.915980 0.618789
vt 0.861925 0.618789
vt 0.842513 0.672971
vt 0.842513 0.618789
vt 0.393520 0.672971
vt 0.393520 0.618790
vt 0.369117 0.672971
vt 0.369116 0.618789
vt 0.292607 0.672971
vt 0.292607 0.618789
vt 0.238085 0.472494
vt 0.247864 0.466432
vt 0.919426 0.564608
vt 0.997152 0.564608
vt 0.269383 0.453093
vt 0.861925 0.564607
vt 0.915980 0.564608
vt 0.842513 0.564608
vt 0.393520 0.564608
vt 0.369116 0.564608
vt 0.292607 0.564608
vt 0.263685 0.529830
vt 0.252394 0.529831
vt 0.997152 0.510426
vt 0.919426 0.510426
vt 0.288533 0.529831
vt 0.915981 0.510426
vt 0.861925 0.510426
vt 0.842513 0.510426
vt 0.393520 0.510426
vt 0.369116 0.510426
vt 0.292607 0.510426
vt 0.238085 0.587167
vt 0.247864 0.593229
vt 0.919426 0.456244
vt 0.997152 0.456244
vt 0.269383 0.606568
vt 0.861925 0.456244
vt 0.915980 0.456244
vt 0.842513 0.456244
vt 0.393520 0.456244
vt 0.369116 0.456244
vt 0.292607 0.456244
vt 0.204638 0.639639
vt 0.198992 0.629140
vt 0.997152 0.402063
vt 0.919426 0.402063
vt 0.217062 0.662744
vt 0.915980 0.402063
vt 0.861925 0.402063
vt 0.842513 0.402063
vt 0.393520 0.402063
vt 0.369116 0.402063
vt 0.292607 0.402063
vt 0.145591 0.644503
vt 0.145591 0.656627
vt 0.919426 0.347881
vt 0.997152 0.347881
vt 0.145591 0.683306
vt 0.861925 0.347881
vt 0.915980 0.347881
vt 0.842513 0.347881
vt 0.393520 0.347881
vt 0.369116 0.347881
vt 0.292607 0.347881
vt 0.086543 0.639639
vt 0.092189 0.629140
vt 0.997152 0.998062
vt 0.919426 0.998062
vt 0.997152 0.943880
vt 0.919426 0.943880
vt 0.074119 0.662744
vt 0.915980 0.998062
vt 0.861925 0.998062
vt 0.915980 0.943880
vt 0.861925 0.943880
vt 0.842513 0.998062
vt 0.842513 0.943880
vt 0.393520 0.998062
vt 0.393520 0.943880
vt 0.369116 0.998062
vt 0.369116 0.943880
vt 0.292607 0.998062
vt 0.292607 0.943880
vt 0.053097 0.587167
vt 0.043318 0.593229
vt 0.919426 0.889698
vt 0.997152 0.889699
vt 0.021799 0.606568
vt 0.861925 0.889698
vt 0.915980 0.889698
vt 0.842513 0.889698
vt 0.393520 0.889698
vt 0.369116 0.889698
vt 0.292607 0.889698
vt 0.027496 0.529830
vt 0.038788 0.529831
vt 0.997152 0.835516
vt 0.919426 0.835517
vt 0.002647 0.529831
vt 0.915981 0.835516
vt 0.861925 0.835516
vt 0.842513 0.835516
vt 0.393520 0.835516
vt 0.369116 0.835516
vt 0.292607 0.835517
vt 0.053097 0.472494
vt 0.043318 0.466432
vt 0.919426 0.781334
vt 0.997152 0.781334
vt 0.021799 0.453093
vt 0.861925 0.781335
vt 0.915980 0.781334
vt 0.842513 0.781334
vt 0.393520 0.781334
vt 0.369117 0.781334
vt 0.292607 0.781334
vt 0.086543 0.420023
vt 0.092189 0.430521
vt 0.997152 0.727153
vt 0.919426 0.727153
vt 0.074119 0.396918
vt 0.915980 0.727153
vt 0.861925 0.727153
vt 0.842513 0.727153
vt 0.393520 0.727152
vt 0.369117 0.727153
vt 0.292607 0.727152
vt 0.143198 0.693049
vt 0.143198 0.731852
vt 0.214670 0.713611
vt 0.196599 0.747214
vt 0.266990 0.769786
vt 0.235693 0.789187
vt 0.250001 0.846524
vt 0.286141 0.846524
vt 0.266990 0.923261
vt 0.235693 0.903861
vt 0.214670 0.979437
vt 0.196599 0.945834
vt 0.143198 0.961196
vt 0.143198 0.999999
vt 0.089798 0.945834
vt 0.071727 0.979437
vt 0.050704 0.903861
vt 0.019406 0.923261
vt 0.036396 0.846524
vt 0.000256 0.846524
vt 0.050704 0.789187
vt 0.019406 0.769786
vt 0.089798 0.747214
vt 0.071727 0.713611
# 164 texture coordinates

vn 1.000000 0.000000 0.000000
vn 0.000000 1.000000 0.000000
vn 0.000000 0.866026 0.499999
vn 0.826893 0.562359 0.000000
vn 0.826892 0.487018 0.281182
vn -0.217683 0.976020 0.000000
vn -0.217681 0.845258 0.488011
vn 0.174677 0.984626 0.000000
vn 0.174678 0.852711 0.492313
vn -0.000000 0.500001 0.866025
vn 0.826891 0.281183 0.487019
vn -0.217679 0.488010 0.845259
vn 0.174678 0.492313 0.852711
vn -0.000000 0.000001 1.000000
vn 0.826895 0.000001 0.562356
vn -0.217680 0.000001 0.976020
vn 0.174678 -0.000000 0.984626
vn 0.000000 -0.500001 0.866025
vn 0.826893 -0.281183 0.487016
vn -0.217681 -0.488009 0.845259
vn 0.174678 -0.492313 0.852711
vn 0.000000 -0.866026 0.499999
vn 0.826893 -0.487018 0.281179
vn -0.217682 -0.845257 0.488012
vn 0.174678 -0.852709 0.492315
vn 0.000001 -1.000000 0.000000
vn 0.826894 -0.562358 0.000000
vn -0.217682 -0.976020 0.000000
vn 0.174679 -0.984626 0.000000
vn 0.000000 -0.866026 -0.499999
vn 0.826893 -0.487018 -0.281179
vn -0.217682 -0.845257 -0.488012
vn 0.174678 -0.852709 -0.492315
vn 0.000000 -0.500001 -0.866025
vn 0.826893 -0.281183 -0.487016
vn -0.217681 -0.488009 -0.845259
vn 0.174678 -0.492313 -0.852711
vn -0.000000 0.000001 -1.000000
vn 0.826895 0.000001 -0.562357
vn -0.217680 0.000001 -0.976020
vn 0.174678 -0.000000 -0.984626
vn -0.000000 0.500001 -0.866025
vn 0.826891 0.281183 -0.487019
vn -0.217679 0.488010 -0.845258
vn 0.174678 0.492313 -0.852711
vn 0.000000 0.866026 -0.499999
vn 0.826892 0.487018 -0.281182
vn -0.217681 0.845258 -0.488011
vn 0.174678 0.852711 -0.492313
vn 0.000000 -0.907077 0.420964
vn -0.000000 -0.818115 0.575055
vn 0.000000 -0.996035 0.088960
vn 0.000000 -0.996035 -0.088960
vn 0.000000 -0.907074 -0.420971
vn -0.000000 -0.818115 -0.575054
vn -0.000000 -0.575066 -0.818107
vn -0.000000 -0.420975 -0.907072
vn -0.000000 -0.575062 0.818110
vn -0.000000 -0.420968 0.907075
vn -0.000000 -0.088957 -0.996035
vn -0.000000 0.088962 -0.996035
vn -0.000000 -0.088962 0.996035
vn -0.000000 0.088958 0.996035
vn -0.000000 0.420975 0.907072
vn -0.000000 0.575067 0.818106
vn -0.000000 0.420969 -0.907075
vn -0.000000 0.575063 -0.818109
vn -0.000000 0.818116 0.575053
vn -0.000000 0.907074 0.420972
vn -0.000000 0.818114 -0.575056
vn -0.000000 0.907076 -0.420966
vn -0.000000 0.996035 0.088962
vn -0.000000 0.996035 -0.088960
vn -1.000000 0.000000 0.000000
# 74 normals

g Cylinder01
usemtl dpb_brl_lpc
s 3
f 1/1/1 2/2/1 11/3/1
f 1/1/1 11/3/1 10/4/1
s 1
f 2/5/2 3/6/2 11/7/3
f 3/6/2 12/8/3 11/7/3
s 3
f 3/2/4 4/9/4 13/10/5
f 3/2/4 13/10/5 12/3/5
s 1
f 4/11/2 5/12/2 13/13/3
f 5/12/2 14/14/3 13/13/3
s 3
f 5/12/6 6/15/6 15/16/7
f 5/12/6 15/16/7 14/14/7
s 1
f 6/15/2 7/17/2 15/16/3
f 7/17/2 16/18/3 15/16/3
s 3
f 7/17/8 8/19/8 17/20/9
f 7/17/8 17/20/9 16/18/9
s 1
f 8/19/2 9/21/2 17/20/3
f 9/21/2 18/22/3 17/20/3
s 3
f 10/4/1 11/3/1 19/23/1
f 11/3/1 20/24/1 19/23/1
s 1
f 11/7/3 12/8/3 21/25/10
f 11/7/3 21/25/10 20/26/10
s 3
f 12/3/5 13/10/5 21/24/11
f 13/10/5 22/27/11 21/24/11
s 1
f 13/13/3 14/14/3 23/28/10
f 13/13/3 23/28/10 22/29/10
s 3
f 14/14/7 15/16/7 23/28/12
f 15/16/7 24/30/12 23/28/12
s 1
f 15/16/3 16/18/3 25/31/10
f 15/16/3 25/31/10 24/30/10
s 3
f 16/18/9 17/20/9 25/31/13
f 17/20/9 26/32/13 25/31/13
s 1
f 17/20/3 18/22/3 27/33/10
f 17/20/3 27/33/10 26/32/10
s 3
f 19/23/1 20/24/1 29/34/1
f 19/23/1 29/34/1 28/35/1
s 1
f 20/26/10 21/25/10 29/36/14
f 21/25/10 30/37/14 29/36/14
s 3
f 21/24/11 22/27/11 31/38/15
f 21/24/11 31/38/15 30/34/15
s 1
f 22/29/10 23/28/10 31/39/14
f 23/28/10 32/40/14 31/39/14
s 3
f 23/28/12 24/30/12 33/41/16
f 23/28/12 33/41/16 32/40/16
s 1
f 24/30/10 25/31/10 33/41/14
f 25/31/10 34/42/14 33/41/14
s 3
f 25/31/13 26/32/13 35/43/17
f 25/31/13 35/43/17 34/42/17
s 1
f 26/32/10 27/33/10 35/43/14
f 27/33/10 36/44/14 35/43/14
s 3
f 28/35/1 29/34/1 37/45/1
f 29/34/1 38/46/1 37/45/1
s 1
f 29/36/14 30/37/14 39/47/18
f 29/36/14 39/47/18 38/48/18
s 3
f 30/34/15 31/38/15 39/46/19
f 31/38/15 40/49/19 39/46/19
s 1
f 31/39/14 32/40/14 41/50/18
f 31/39/14 41/50/18 40/51/18
s 3
f 32/40/16 33/41/16 41/50/20
f 33/41/16 42/52/20 41/50/20
s 1
f 33/41/14 34/42/14 43/53/18
f 33/41/14 43/53/18 42/52/18
s 3
f 34/42/17 35/43/17 43/53/21
f 35/43/17 44/54/21 43/53/21
s 1
f 35/43/14 36/44/14 45/55/18
f 35/43/14 45/55/18 44/54/18
s 3
f 37/45/1 38/46/1 47/56/1
f 37/45/1 47/56/1 46/57/1
s 1
f 38/48/18 39/47/18 47/58/22
f 39/47/18 48/59/22 47/58/22
s 3
f 39/46/19 40/49/19 49/60/23
f 39/46/19 49/60/23 48/56/23
s 1
f 40/51/18 41/50/18 49/61/22
f 41/50/18 50/62/22 49/61/22
s 3
f 41/50/20 42/52/20 51/63/24
f 41/50/20 51/63/24 50/62/24
s 1
f 42/52/18 43/53/18 51/63/22
f 43/53/18 52/64/22 51/63/22
s 3
f 43/53/21 44/54/21 53/65/25
f 43/53/21 53/65/25 52/64/25
s 1
f 44/54/18 45/55/18 53/65/22
f 45/55/18 54/66/22 53/65/22
s 3
f 46/57/1 47/56/1 55/67/1
f 47/56/1 56/68/1 55/67/1
s 1
f 47/58/22 48/59/22 57/69/26
f 47/58/22 57/69/26 56/70/26
s 3
f 48/56/23 49/60/23 57/68/27
f 49/60/23 58/71/27 57/68/27
s 1
f 49/61/22 50/62/22 59/72/26
f 49/61/22 59/72/26 58/73/26
s 3
f 50/62/24 51/63/24 59/72/28
f 51/63/24 60/74/28 59/72/28
s 1
f 51/63/22 52/64/22 61/75/26
f 51/63/22 61/75/26 60/74/26
s 3
f 52/64/25 53/65/25 61/75/29
f 53/65/25 62/76/29 61/75/29
s 1
f 53/65/22 54/66/22 63/77/26
f 53/65/22 63/77/26 62/76/26
s 3
f 55/67/1 56/68/1 65/78/1
f 55/67/1 65/78/1 64/79/1
s 1
f 56/80/26 57/81/26 65/82/30
f 57/81/26 66/83/30 65/82/30
s 3
f 57/68/27 58/71/27 67/84/31
f 57/68/27 67/84/31 66/78/31
s 1
f 58/85/26 59/86/26 67/87/30
f 59/86/26 68/88/30 67/87/30
s 3
f 59/86/28 60/89/28 69/90/32
f 59/86/28 69/90/32 68/88/32
s 1
f 60/89/26 61/91/26 69/90/30
f 61/91/26 70/92/30 69/90/30
s 3
f 61/91/29 62/93/29 71/94/33
f 61/91/29 71/94/33 70/92/33
s 1
f 62/93/26 63/95/26 71/94/30
f 63/95/26 72/96/30 71/94/30
s 3
f 64/79/1 65/78/1 73/97/1
f 65/78/1 74/98/1 73/97/1
s 1
f 65/82/30 66/83/30 75/99/34
f 65/82/30 75/99/34 74/100/34
s 3
f 66/78/31 67/84/31 75/98/35
f 67/84/31 76/101/35 75/98/35
s 1
f 67/87/30 68/88/30 77/102/34
f 67/87/30 77/102/34 76/103/34
s 3
f 68/88/32 69/90/32 77/102/36
f 69/90/32 78/104/36 77/102/36
s 1
f 69/90/30 70/92/30 79/105/34
f 69/90/30 79/105/34 78/104/34
s 3
f 70/92/33 71/94/33 79/105/37
f 71/94/33 80/106/37 79/105/37
s 1
f 71/94/30 72/96/30 81/107/34
f 71/94/30 81/107/34 80/106/34
s 3
f 73/97/1 74/98/1 83/108/1
f 73/97/1 83/108/1 82/109/1
s 1
f 74/100/34 75/99/34 83/110/38
f 75/99/34 84/111/38 83/110/38
s 3
f 75/98/35 76/101/35 85/112/39
f 75/98/35 85/112/39 84/108/39
s 1
f 76/103/34 77/102/34 85/113/38
f 77/102/34 86/114/38 85/113/38
s 3
f 77/102/36 78/104/36 87/115/40
f 77/102/36 87/115/40 86/114/40
s 1
f 78/104/34 79/105/34 87/115/38
f 79/105/34 88/116/38 87/115/38
s 3
f 79/105/37 80/106/37 89/117/41
f 79/105/37 89/117/41 88/116/41
s 1
f 80/106/34 81/107/34 89/117/38
f 81/107/34 90/118/38 89/117/38
s 3
f 82/109/1 83/108/1 91/119/1
f 83/108/1 92/120/1 91/119/1
s 1
f 83/110/38 84/111/38 93/121/42
f 83/110/38 93/121/42 92/122/42
s 3
f 84/108/39 85/112/39 93/120/43
f 85/112/39 94/123/43 93/120/43
s 1
f 85/113/38 86/114/38 95/124/42
f 85/113/38 95/124/42 94/125/42
s 3
f 86/114/40 87/115/40 95/124/44
f 87/115/40 96/126/44 95/124/44
s 1
f 87/115/38 88/116/38 97/127/42
f 87/115/38 97/127/42 96/126/42
s 3
f 88/116/41 89/117/41 97/127/45
f 89/117/41 98/128/45 97/127/45
s 1
f 89/117/38 90/118/38 99/129/42
f 89/117/38 99/129/42 98/128/42
s 3
f 91/119/1 92/120/1 101/130/1
f 91/119/1 101/130/1 100/131/1
s 1
f 92/122/42 93/121/42 101/132/46
f 93/121/42 102/133/46 101/132/46
s 3
f 93/120/43 94/123/43 103/134/47
f 93/120/43 103/134/47 102/130/47
s 1
f 94/125/42 95/124/42 103/135/46
f 95/124/42 104/136/46 103/135/46
s 3
f 95/124/44 96/126/44 105/137/48
f 95/124/44 105/137/48 104/136/48
s 1
f 96/126/42 97/127/42 105/137/46
f 97/127/42 106/138/46 105/137/46
s 3
f 97/127/45 98/128/45 107/139/49
f 97/127/45 107/139/49 106/138/49
s 1
f 98/128/42 99/129/42 107/139/46
f 99/129/42 108/140/46 107/139/46
s 3
f 100/131/1 101/130/1 1/1/1
f 101/130/1 2/2/1 1/1/1
s 1
f 101/132/46 102/133/46 3/6/2
f 101/132/46 3/6/2 2/5/2
s 3
f 102/130/47 103/134/47 3/2/4
f 103/134/47 4/9/4 3/2/4
s 1
f 103/135/46 104/136/46 5/12/2
f 103/135/46 5/12/2 4/11/2
s 3
f 104/136/48 105/137/48 5/12/6
f 105/137/48 6/15/6 5/12/6
s 1
f 105/137/46 106/138/46 7/17/2
f 105/137/46 7/17/2 6/15/2
s 3
f 106/138/49 107/139/49 7/17/8
f 107/139/49 8/19/8 7/17/8
s 1
f 107/139/46 108/140/46 9/21/2
f 107/139/46 9/21/2 8/19/2
f 110/140/50 100/132/51 1/5/52
f 110/140/50 1/5/52 111/21/53
f 111/21/53 1/5/52 10/7/54
f 111/21/53 10/7/54 109/22/55
f 109/22/55 10/7/54 19/26/56
f 109/22/55 19/26/56 112/33/57
f 113/129/58 91/122/59 100/132/51
f 113/129/58 100/132/51 110/140/50
f 112/33/57 19/26/56 28/36/60
f 112/33/57 28/36/60 114/44/61
f 115/118/62 82/110/63 91/122/59
f 115/118/62 91/122/59 113/129/58
f 116/107/64 73/100/65 82/110/63
f 116/107/64 82/110/63 115/118/62
f 114/44/61 28/36/60 37/48/66
f 114/44/61 37/48/66 117/55/67
f 118/96/68 64/82/69 73/100/65
f 118/96/68 73/100/65 116/107/64
f 117/55/67 37/48/66 46/58/70
f 117/55/67 46/58/70 119/66/71
f 120/95/72 55/80/73 64/82/69
f 120/95/72 64/82/69 118/96/68
f 119/66/71 46/58/70 55/70/73
f 119/66/71 55/70/73 120/77/72
s 3
f 9/141/74 111/142/74 18/143/74
f 18/143/74 111/142/74 109/144/74
f 27/145/74 18/143/74 109/144/74
f 109/144/74 112/146/74 27/145/74
f 27/145/74 112/146/74 114/147/74
f 27/145/74 114/147/74 36/148/74
f 36/148/74 114/147/74 45/149/74
f 45/149/74 114/147/74 117/150/74
f 45/149/74 117/150/74 54/151/74
f 119/152/74 54/151/74 117/150/74
f 119/152/74 120/153/74 54/151/74
f 54/151/74 120/153/74 63/154/74
f 120/153/74 118/155/74 63/154/74
f 63/154/74 118/155/74 72/156/74
f 116/157/74 72/156/74 118/155/74
f 116/157/74 81/158/74 72/156/74
f 116/157/74 115/159/74 81/158/74
f 90/160/74 81/158/74 115/159/74
f 115/159/74 113/161/74 90/160/74
f 113/161/74 99/162/74 90/160/74
f 113/161/74 110/163/74 108/164/74
f 108/164/74 99/162/74 113/161/74
f 9/141/74 108/164/74 111/142/74
f 111/142/74 108/164/74 110/163/74
# 240 triangles in group

# 240 triangles total

