# Wavefront OBJ exported by MilkShape 3D

mtllib blazerbarrel.mtl

v -10.761643 0.722596 -0.807808
v -10.761643 0.153954 -0.981659
v -10.761643 -0.408278 -0.788070
v -10.761643 -0.749339 -0.300979
v -10.761643 -0.738964 0.293558
v -10.761643 -0.381107 0.768448
v -10.761643 0.187534 0.942299
v -10.761643 0.749766 0.748707
v -10.761643 1.090830 0.261616
v -10.761643 1.080452 -0.332918
v 18.757544 0.722596 -0.807808
v 18.757544 0.153951 -0.981659
v 18.757544 -0.408278 -0.788067
v 18.757544 -0.749342 -0.300976
v 18.757544 -0.738964 0.293558
v 18.757544 -0.381104 0.768448
v 18.757544 0.187538 0.942299
v 18.757544 0.749769 0.748703
v 18.757544 1.090830 0.261613
v 18.757544 1.080452 -0.332921
v -7.877377 0.153954 -0.981659
v -7.877377 0.722596 -0.807808
v -7.877377 -0.408278 -0.788067
v -7.877379 -0.749339 -0.300979
v -7.877379 -0.738964 0.293558
v -7.877379 -0.381107 0.768448
v -7.877379 0.187538 0.942299
v -7.877379 0.749766 0.748707
v -7.877379 1.090830 0.261616
v -7.877377 1.080452 -0.332921
v -7.827539 1.183880 -0.368533
v -7.827539 0.785340 -0.897412
v -7.827539 1.195439 0.293599
v -7.827539 0.815598 0.836067
v -7.827539 0.189446 1.051669
v -7.827539 -0.443849 0.858052
v -7.827539 -0.842392 0.329170
v -7.827539 -0.853947 -0.332962
v -7.827539 -0.474106 -0.875428
v -7.827539 0.152043 -1.091029
v -7.370740 0.785340 -0.897412
v -7.370740 0.152043 -1.091029
v -7.370740 -0.474106 -0.875428
v -7.370745 -0.853947 -0.332962
v -7.370745 -0.842392 0.329170
v -7.370745 -0.443849 0.858052
v -7.370745 0.189446 1.051669
v -7.370745 0.815598 0.836067
v -7.370745 1.195439 0.293599
v -7.370740 1.183880 -0.368533
v -6.893114 1.080452 -0.332921
v -6.893114 0.722596 -0.807808
v -6.893114 1.090830 0.261616
v -6.893114 0.749766 0.748707
v -6.893114 0.187538 0.942299
v -6.893114 -0.381107 0.768448
v -6.893114 -0.738964 0.293558
v -6.893114 -0.749339 -0.300979
v -6.893114 -0.408278 -0.788067
v -6.893114 0.153954 -0.981659
v 18.757544 0.647015 -0.699868
v 18.757544 0.955859 -0.290019
v 18.757544 0.964817 0.223090
v 18.757544 0.670468 0.643469
v 18.757544 0.185237 0.810546
v 18.757544 -0.305527 0.660508
v 18.757544 -0.614371 0.250659
v 18.757544 -0.623329 -0.262450
v 18.757544 -0.328976 -0.682829
v 18.757544 0.156251 -0.849909
v -10.761643 0.156251 -0.849909
v -10.761643 0.647015 -0.699868
v -10.761643 -0.328976 -0.682829
v -10.761643 -0.623329 -0.262450
v -10.761643 -0.614371 0.250659
v -10.761643 -0.305527 0.660508
v -10.761643 0.185237 0.810546
v -10.761643 0.670468 0.643469
v -10.761643 0.964817 0.223090
v -10.761643 0.955859 -0.290019
# 80 vertices

vt 0.982469 0.727614
vt 0.894088 0.727635
vt 0.894100 0.745860
vt 0.982473 0.745826
vt 0.894120 0.764085
vt 0.982480 0.764038
vt 0.894146 0.782306
vt 0.982490 0.782249
vt 0.894169 0.800510
vt 0.982500 0.800460
vt 0.982473 0.618359
vt 0.894160 0.618330
vt 0.894142 0.636527
vt 0.982466 0.636566
vt 0.894117 0.654743
vt 0.982461 0.654773
vt 0.894098 0.672963
vt 0.982458 0.672982
vt 0.894087 0.691186
vt 0.982458 0.691191
vt 0.894083 0.709410
vt 0.982461 0.709402
vt 0.890685 0.709460
vt 0.890689 0.727672
vt 0.890690 0.691249
vt 0.890705 0.673036
vt 0.890748 0.654804
vt 0.890851 0.636448
vt 0.890905 0.617500
vt 0.890847 0.782481
vt 0.890905 0.801415
vt 0.890747 0.764121
vt 0.890704 0.745886
vt 0.878065 0.727661
vt 0.878073 0.745872
vt 0.878092 0.764115
vt 0.878101 0.782501
vt 0.877903 0.801433
vt 0.877916 0.617520
vt 0.878110 0.636424
vt 0.878098 0.654803
vt 0.878077 0.673044
vt 0.878067 0.691254
vt 0.878063 0.709457
vt 0.863868 0.709507
vt 0.863866 0.727699
vt 0.863870 0.691314
vt 0.863872 0.673121
vt 0.863874 0.654929
vt 0.863875 0.636737
vt 0.863877 0.618545
vt 0.863860 0.782277
vt 0.863857 0.800469
vt 0.863862 0.764084
vt 0.863864 0.745892
vt 0.079088 0.727614
vt 0.079086 0.745807
vt 0.079084 0.763999
vt 0.079082 0.782192
vt 0.079080 0.800384
vt 0.079101 0.618459
vt 0.079099 0.636652
vt 0.079097 0.654844
vt 0.079094 0.673037
vt 0.079092 0.691229
vt 0.079090 0.709422
vt 0.055124 0.627872
vt 0.040311 0.617500
vt 0.039139 0.621332
vt 0.051924 0.630284
vt 0.022230 0.617816
vt 0.023534 0.621605
vt 0.007787 0.628699
vt 0.011070 0.630997
vt 0.002500 0.645992
vt 0.006507 0.645922
vt 0.008388 0.663091
vt 0.011588 0.660679
vt 0.023201 0.673464
vt 0.024373 0.669631
vt 0.041282 0.673148
vt 0.039977 0.669359
vt 0.055725 0.662265
vt 0.052442 0.659966
vt 0.061012 0.644971
vt 0.057005 0.645041
vt 0.084248 0.866319
vt 0.084056 0.881925
vt 0.981732 0.892968
vt 0.981924 0.877362
vt 0.084440 0.850713
vt 0.982116 0.861756
vt 0.084632 0.835108
vt 0.982308 0.846150
vt 0.084824 0.819502
vt 0.982500 0.830544
vt 0.083096 0.959955
vt 0.082904 0.975561
vt 0.980580 0.986604
vt 0.980772 0.970998
vt 0.083288 0.944349
vt 0.980964 0.955392
vt 0.083480 0.928743
vt 0.981156 0.939786
vt 0.083672 0.913137
vt 0.981348 0.924180
vt 0.083864 0.897531
vt 0.981540 0.908574
vt 0.011611 0.830701
vt 0.006324 0.847995
vt 0.010330 0.847925
vt 0.014893 0.832999
vt 0.026053 0.819817
vt 0.027358 0.823606
vt 0.044134 0.819502
vt 0.042963 0.823334
vt 0.058948 0.829874
vt 0.055747 0.832286
vt 0.064835 0.846973
vt 0.060829 0.847043
vt 0.059548 0.864267
vt 0.056265 0.861968
vt 0.043801 0.871361
vt 0.045106 0.875150
vt 0.027025 0.875465
vt 0.028196 0.871633
vt 0.012211 0.865093
vt 0.015412 0.862681
# 128 texture coordinates

vn 0.000000 0.482037 -0.876151
vn -0.000000 0.658444 -0.752630
vn 0.000000 0.090309 -0.995914
vn 0.000000 -0.125010 -0.992155
vn 0.000001 -0.512321 -0.858794
vn 0.000001 -0.684311 -0.729190
vn 0.000000 -0.919263 -0.393643
vn 0.000000 -0.982226 -0.187701
vn 0.000000 -0.975078 0.221862
vn 0.000000 -0.904965 0.425486
vn 0.000000 -0.658444 0.752630
vn 0.000000 -0.482037 0.876151
vn -0.000000 -0.090308 0.995914
vn -0.000000 0.125012 0.992155
vn -0.000000 0.512322 0.858793
vn 0.000000 0.684311 0.729191
vn 0.000000 0.919263 0.393644
vn -0.000000 0.982227 0.187699
vn -0.000000 0.975077 -0.221867
vn -0.000000 0.904964 -0.425488
vn -0.909085 0.377017 -0.177264
vn -0.909082 0.406233 -0.092434
vn -0.909085 0.274314 -0.313554
vn -0.909085 0.200821 -0.365015
vn -0.909081 0.409215 0.078199
vn -0.909079 0.382988 0.164001
vn -0.909079 0.285101 0.303798
vn -0.909078 0.213446 0.357796
vn -0.909077 0.052084 0.413359
vn -0.909076 -0.037625 0.414927
vn -0.909076 -0.200831 0.365030
vn -0.909076 -0.274328 0.313569
vn -0.909076 -0.377035 0.177270
vn -0.909077 -0.406244 0.092435
vn -0.909078 -0.409221 -0.078202
vn -0.909080 -0.382985 -0.164002
vn -0.909081 -0.285096 -0.303795
vn -0.909084 -0.213441 -0.357785
vn -0.909084 -0.052081 -0.413344
vn -0.909084 0.037624 -0.414910
vn 0.222009 0.882380 -0.414869
vn 0.222008 0.950744 -0.216330
vn 0.222009 0.642012 -0.733848
vn 0.222009 0.470008 -0.854286
vn 0.222009 0.957715 0.183015
vn 0.222009 0.896323 0.383820
vn 0.222009 0.667233 0.710993
vn 0.222008 0.499537 0.837362
vn 0.222007 0.121893 0.967396
vn 0.222006 -0.088055 0.971061
vn 0.222005 -0.470008 0.854287
vn 0.222005 -0.642013 0.733848
vn 0.222006 -0.882382 0.414868
vn 0.222007 -0.950745 0.216326
vn 0.222008 -0.957714 -0.183019
vn 0.222007 -0.896322 -0.383822
vn 0.222007 -0.667234 -0.710993
vn 0.222007 -0.499538 -0.837362
vn 0.222008 -0.121893 -0.967396
vn 0.222008 0.088055 -0.971061
vn 1.000000 0.000000 0.000000
vn -1.000000 0.000000 0.000000
# 62 normals

g default
usemtl Material01
s 1
f 1/1/1 22/2/2 21/3/3
f 1/1/1 21/3/3 2/4/4
f 2/4/4 21/3/3 23/5/5
f 2/4/4 23/5/5 3/6/6
f 3/6/6 23/5/5 24/7/7
f 3/6/6 24/7/7 4/8/8
f 4/8/8 24/7/7 25/9/9
f 4/8/8 25/9/9 5/10/10
f 5/11/10 25/12/9 26/13/11
f 5/11/10 26/13/11 6/14/12
f 6/14/12 26/13/11 27/15/13
f 6/14/12 27/15/13 7/16/14
f 7/16/14 27/15/13 28/17/15
f 7/16/14 28/17/15 8/18/16
f 8/18/16 28/17/15 29/19/17
f 8/18/16 29/19/17 9/20/18
f 9/20/18 29/19/17 30/21/19
f 9/20/18 30/21/19 10/22/20
f 22/2/2 1/1/1 10/22/20
f 22/2/2 10/22/20 30/21/19
s 2
f 30/21/21 31/23/22 32/24/23
f 30/21/21 32/24/23 22/2/24
f 29/19/25 33/25/26 31/23/22
f 29/19/25 31/23/22 30/21/21
f 28/17/27 34/26/28 33/25/26
f 28/17/27 33/25/26 29/19/25
f 27/15/29 35/27/30 34/26/28
f 27/15/29 34/26/28 28/17/27
f 26/13/31 36/28/32 35/27/30
f 26/13/31 35/27/30 27/15/29
f 25/12/33 37/29/34 36/28/32
f 25/12/33 36/28/32 26/13/31
f 24/7/35 38/30/36 37/31/34
f 24/7/35 37/31/34 25/9/33
f 23/5/37 39/32/38 38/30/36
f 23/5/37 38/30/36 24/7/35
f 21/3/39 40/33/40 39/32/38
f 21/3/39 39/32/38 23/5/37
f 22/2/24 32/24/23 40/33/40
f 22/2/24 40/33/40 21/3/39
s 1
f 32/24/1 41/34/2 42/35/3
f 32/24/1 42/35/3 40/33/4
f 40/33/4 42/35/3 43/36/5
f 40/33/4 43/36/5 39/32/6
f 39/32/6 43/36/5 44/37/7
f 39/32/6 44/37/7 38/30/8
f 38/30/8 44/37/7 45/38/9
f 38/30/8 45/38/9 37/31/10
f 37/29/10 45/39/9 46/40/11
f 37/29/10 46/40/11 36/28/12
f 36/28/12 46/40/11 47/41/13
f 36/28/12 47/41/13 35/27/14
f 35/27/14 47/41/13 48/42/15
f 35/27/14 48/42/15 34/26/16
f 34/26/16 48/42/15 49/43/17
f 34/26/16 49/43/17 33/25/18
f 33/25/18 49/43/17 50/44/19
f 33/25/18 50/44/19 31/23/20
f 31/23/20 50/44/19 41/34/2
f 31/23/20 41/34/2 32/24/1
s 2
f 50/44/41 51/45/42 52/46/43
f 50/44/41 52/46/43 41/34/44
f 49/43/45 53/47/46 51/45/42
f 49/43/45 51/45/42 50/44/41
f 48/42/47 54/48/48 53/47/46
f 48/42/47 53/47/46 49/43/45
f 47/41/49 55/49/50 54/48/48
f 47/41/49 54/48/48 48/42/47
f 46/40/51 56/50/52 55/49/50
f 46/40/51 55/49/50 47/41/49
f 45/39/53 57/51/54 56/50/52
f 45/39/53 56/50/52 46/40/51
f 44/37/55 58/52/56 57/53/54
f 44/37/55 57/53/54 45/38/53
f 43/36/57 59/54/58 58/52/56
f 43/36/57 58/52/56 44/37/55
f 42/35/59 60/55/60 59/54/58
f 42/35/59 59/54/58 43/36/57
f 41/34/44 52/46/43 60/55/60
f 41/34/44 60/55/60 42/35/59
s 1
f 52/46/1 11/56/2 12/57/3
f 52/46/1 12/57/3 60/55/4
f 60/55/4 12/57/3 13/58/5
f 60/55/4 13/58/5 59/54/6
f 59/54/6 13/58/5 14/59/7
f 59/54/6 14/59/7 58/52/8
f 58/52/8 14/59/7 15/60/9
f 58/52/8 15/60/9 57/53/10
f 57/51/10 15/61/9 16/62/11
f 57/51/10 16/62/11 56/50/12
f 56/50/12 16/62/11 17/63/13
f 56/50/12 17/63/13 55/49/14
f 55/49/14 17/63/13 18/64/15
f 55/49/14 18/64/15 54/48/16
f 54/48/16 18/64/15 19/65/17
f 54/48/16 19/65/17 53/47/18
f 53/47/18 19/65/17 20/66/19
f 53/47/18 20/66/19 51/45/20
f 51/45/20 20/66/19 11/56/2
f 51/45/20 11/56/2 52/46/1
s 2
f 11/67/61 20/68/61 62/69/61
f 11/67/61 62/69/61 61/70/61
f 20/68/61 19/71/61 63/72/61
f 20/68/61 63/72/61 62/69/61
f 19/71/61 18/73/61 64/74/61
f 19/71/61 64/74/61 63/72/61
f 18/73/61 17/75/61 65/76/61
f 18/73/61 65/76/61 64/74/61
f 17/75/61 16/77/61 66/78/61
f 17/75/61 66/78/61 65/76/61
f 16/77/61 15/79/61 67/80/61
f 16/77/61 67/80/61 66/78/61
f 15/79/61 14/81/61 68/82/61
f 15/79/61 68/82/61 67/80/61
f 14/81/61 13/83/61 69/84/61
f 14/81/61 69/84/61 68/82/61
f 13/83/61 12/85/61 70/86/61
f 13/83/61 70/86/61 69/84/61
f 12/85/61 11/67/61 61/70/61
f 12/85/61 61/70/61 70/86/61
s 1
f 70/87/13 61/88/11 72/89/12
f 70/87/13 72/89/12 71/90/14
f 69/91/15 70/87/13 71/90/14
f 69/91/15 71/90/14 73/92/16
f 68/93/17 69/91/15 73/92/16
f 68/93/17 73/92/16 74/94/18
f 67/95/19 68/93/17 74/94/18
f 67/95/19 74/94/18 75/96/20
f 66/97/2 67/98/19 75/99/20
f 66/97/2 75/99/20 76/100/1
f 65/101/3 66/97/2 76/100/1
f 65/101/3 76/100/1 77/102/4
f 64/103/5 65/101/3 77/102/4
f 64/103/5 77/102/4 78/104/6
f 63/105/7 64/103/5 78/104/6
f 63/105/7 78/104/6 79/106/8
f 62/107/9 63/105/7 79/106/8
f 62/107/9 79/106/8 80/108/10
f 61/88/11 62/107/9 80/108/10
f 61/88/11 80/108/10 72/89/12
s 2
f 6/109/62 7/110/62 77/111/62
f 6/109/62 77/111/62 76/112/62
f 5/113/62 6/109/62 76/112/62
f 5/113/62 76/112/62 75/114/62
f 4/115/62 5/113/62 75/114/62
f 4/115/62 75/114/62 74/116/62
f 3/117/62 4/115/62 74/116/62
f 3/117/62 74/116/62 73/118/62
f 2/119/62 3/117/62 73/118/62
f 2/119/62 73/118/62 71/120/62
f 1/121/62 2/119/62 71/120/62
f 1/121/62 71/120/62 72/122/62
f 1/121/62 72/122/62 80/123/62
f 1/121/62 80/123/62 10/124/62
f 9/125/62 10/124/62 80/123/62
f 9/125/62 80/123/62 79/126/62
f 8/127/62 9/125/62 79/126/62
f 8/127/62 79/126/62 78/128/62
f 7/110/62 8/127/62 78/128/62
f 7/110/62 78/128/62 77/111/62
# 160 triangles in group

# 160 triangles total

